{"title":"Sweetwater Dolce Vendetta (2013).DVDrip.XviD - Italian English.A","uid":12116355,"size":1471568636,"categoryP":"video","categoryS":"movies","magnet":"?xt=urn:btih:81cce2369dc6ff2cd6d6db66f1a1e659c2556fdd&amp;dn=Sweetwater+Dolce+Vendetta+%282013%29.DVDrip.XviD+-+Italian+English.A&amp;tr=udp%3A%2F%2Ftracker.openbittorrent.com%3A80&amp;tr=udp%3A%2F%2Fopen.demonii.com%3A1337&amp;tr=udp%3A%2F%2Ftracker.coppersurfer.tk%3A6969&amp;tr=udp%3A%2F%2Fexodus.desync.com%3A6969","seeders":4,"leechers":0,"uploader":"robbyrs4","files":4,"time":1436719587,"description":"Sweetwater Dolce Vendetta (2013).DVDrip.XviD - Italian English.Ac3.5.1.Sub.ita.MIRCrew\n\n[center]\n\n[color=red][b][img]http://s19.postimg.org/w9ws99nmb/banner_mircrew_original_2.png[/img]\n\n[u]NO FOUND ONLY ORIGINAL RELEASE[/u]\n\nSweetwater Dolce Vendetta (2013)\n\n[img]http://i.imgur.com/bbzsDVJ.png[/img]\n\n\n[URL=http://www.imdb.com/title/tt3528666/][IMG]http://www.userlogos.org/files/logos/Sucka/imdb_new.png[/IMG][/URL]  \n\n[img]http://s19.postimg.org/vz5tzn42b/1_scheda.png[/img]\n\nDATA USCITA: 2013\nGENERE: Thriller, Western\nREGIA: Logan Miller\nSCENEGGIATURA: Logan Miller, Noah Miller\nPRODUZIONE: Kickstart Productions, Mythic International Entertainment, Raindance Entertainment\nPAESE: USA\n\n[img]http://s19.postimg.org/q8fnlww2b/1_cast.png[/img]\n\nEd Harris, January Jones, Jason Isaacs, Eduardo Noriega, Chad Brummett\n   \n[img]http://s19.postimg.org/okgi79i6r/1_trama.png[/img]\n\nAlla fine del 1800, un leader religioso fanatico, uno sceriffo rinnegato e una ex prostituta si trova coinvolti in un triangolo di sangue tra le aride pianure del New Mexico................\n........\n\n[img]http://s19.postimg.org/fzn6g380j/1_story.png[/img]\n\nIn the late 1800s, a fanatical religious leader, a renegade Sheriff, and a former prostitute collide in a blood triangle on the rugged plains of the New Mexico Territory................ &lt;a href=&quot;\nhttp://extraimago.com/images/2015/07/12/vlcsnap-2015-07-12-16h31m16s210.png[/img]&quot; rel=&quot;nofollow&quot; target=&quot;_NEW&quot;&gt;\nhttp://extraimago.com/images/2015/07/12/vlcsnap-2015-07-12-16h31m16s210.png[/img]&lt;/a&gt; &lt;a href=&quot;\nhttp://extraimago.com/images/2015/07/12/vlcsnap-2015-07-12-16h31m25s55.png[/img]&quot; rel=&quot;nofollow&quot; target=&quot;_NEW&quot;&gt;\nhttp://extraimago.com/images/2015/07/12/vlcsnap-2015-07-12-16h31m25s55.png[/img]&lt;/a&gt; &lt;a href=&quot;\nhttp://extraimago.com/images/2015/07/12/vlcsnap-2015-07-12-16h31m32s118.png[/img]&quot; rel=&quot;nofollow&quot; target=&quot;_NEW&quot;&gt;\nhttp://extraimago.com/images/2015/07/12/vlcsnap-2015-07-12-16h31m32s118.png[/img]&lt;/a&gt; &lt;a href=&quot;\nhttp://extraimago.com/images/2015/07/12/vlcsnap-2015-07-12-16h31m56s105.png[/img]&quot; rel=&quot;nofollow&quot; target=&quot;_NEW&quot;&gt;\nhttp://extraimago.com/images/2015/07/12/vlcsnap-2015-07-12-16h31m56s105.png[/img]&lt;/a&gt;\n\n\n[IMG]http://img153.imageshack.us/img153/3158/restateinseedblood.gif[/img]\n\n\n[img]http://imgur.com/lvhU6.gif[/img]\n\n\n[img]http://s19.postimg.org/a2jaz9qvn/1_dati.png[/img]\n\n\n[spoiler]\nGeneral\nComplete name                            : Sweetwater (2013).ita.eng.sub.ita.MIRcrewSweetwater (2013).ita.eng.sub.ita.MIRcrew.avi\nFormat                                   : AVI\nFormat/Info                              : Audio Video Interleave\nFile size                                : 1.37 GiB\nDuration                                 : 1h 30mn\nOverall bit rate                         : 2 161 Kbps\nWriting application                      : VirtualDubMod 1.5.4.1 (build 2178/release)\nWriting library                          : VirtualDubMod build 2178/release\n\nVideo\nID                                       : 0\nFormat                                   : MPEG-4 Visual\nFormat profile                           : Advanced Simple@L5\nFormat settings, BVOP                    : 1\nFormat settings, QPel                    : No\nFormat settings, GMC                     : No warppoints\nFormat settings, Matrix                  : Custom\nCodec ID                                 : XVID\nCodec ID/Hint                            : XviD\nDuration                                 : 1h 30mn\nBit rate                                 : 1 256 Kbps\nWidth                                    : 720 pixels\nHeight                                   : 304 pixels\nDisplay aspect ratio                     : 2.35:1\nFrame rate                               : 25.000 fps\nColor space                              : YUV\nChroma subsampling                       : 4:2:0\nBit depth                                : 8 bits\nScan type                                : Progressive\nCompression mode                         : Lossy\nBits/(Pixel*Frame)                       : 0.229\nStream size                              : 814 MiB (58%)\nWriting library                          : XviD 64\n\nAudio #1\nID                                       : 1\nFormat                                   : AC-3\nFormat/Info                              : Audio Coding 3\nMode extension                           : CM (complete main)\nCodec ID                                 : 2000\nDuration                                 : 1h 30mn\nBit rate mode                            : Constant\nBit rate                                 : 448 Kbps\nChannel(s)                               : 6 channels\nChannel positions                        : Front: L C R, Side: L R, LFE\nSampling rate                            : 48.0 KHz\nBit depth                                : 16 bits\nCompression mode                         : Lossy\nStream size                              : 290 MiB (21%)\nAlignment                                : Split accross interleaves\nInterleave, duration                     : 96 ms (2.40 video frames)\nInterleave, preload duration             : 96 ms\nLanguage                                 : Italian\n\nAudio #2\nID                                       : 2\nFormat                                   : AC-3\nFormat/Info                              : Audio Coding 3\nMode extension                           : CM (complete main)\nCodec ID                                 : 2000\nDuration                                 : 1h 30mn\nBit rate mode                            : Constant\nBit rate                                 : 448 Kbps\nChannel(s)                               : 6 channels\nChannel positions                        : Front: L C R, Side: L R, LFE\nSampling rate                            : 48.0 KHz\nBit depth                                : 16 bits\nCompression mode                         : Lossy\nStream size                              : 290 MiB (21%)\nAlignment                                : Split accross interleaves\nInterleave, duration                     : 96 ms (2.40 video frames)\nInterleave, preload duration             : 96 ms\nLanguage                                 : English\n\n\n[/spoiler]\n\n[/color][/b][/center]","torrent":{"xt":"urn:btih:81cce2369dc6ff2cd6d6db66f1a1e659c2556fdd","amp;dn":"Sweetwater+Dolce+Vendetta+%282013%29.DVDrip.XviD+-+Italian+English.A","amp;tr":["udp%3A%2F%2Ftracker.openbittorrent.com%3A80","udp%3A%2F%2Fopen.demonii.com%3A1337","udp%3A%2F%2Ftracker.coppersurfer.tk%3A6969","udp%3A%2F%2Fexodus.desync.com%3A6969"],"infoHash":"81cce2369dc6ff2cd6d6db66f1a1e659c2556fdd","infoHashBuffer":{"type":"Buffer","data":[129,204,226,54,157,198,255,44,214,214,219,102,241,161,230,89,194,85,111,221]},"announce":[],"urlList":[]}}